<svg id="darpi" xmlns="http://www.w3.org/2000/svg" xmlns:xlink="http://www.w3.org/1999/xlink" width="125.658" height="48.093" viewBox="0 0 125.658 48.093">
  <defs>
    <clipPath id="clip-path">
      <rect id="Retângulo_7" data-name="Retângulo 7" width="125.658" height="48.093" fill="none"/>
    </clipPath>
  </defs>
  <g id="darpi-2" data-name="darpi" clip-path="url(#clip-path)">
    <path id="Caminho_11" data-name="Caminho 11" d="M134.3,44.39a8.164,8.164,0,0,1,7.355-4.384,8.4,8.4,0,0,1,3.459.763,7.08,7.08,0,0,1,2.711,2.03V34.161h3.735V58.192h-3.735V55.5a6.93,6.93,0,0,1-2.516,2.143,7.812,7.812,0,0,1-3.686.844,8,8,0,0,1-4.27-1.185,8.36,8.36,0,0,1-3.053-3.313,10.189,10.189,0,0,1-1.12-4.822,9.9,9.9,0,0,1,1.12-4.774m12.762,1.624a5.364,5.364,0,0,0-2-2.079,5.229,5.229,0,0,0-2.663-.714,5.321,5.321,0,0,0-2.663.7,5.266,5.266,0,0,0-2,2.046,6.39,6.39,0,0,0-.763,3.2,6.666,6.666,0,0,0,.763,3.247,5.384,5.384,0,0,0,2.013,2.127,5.166,5.166,0,0,0,2.647.731,5.226,5.226,0,0,0,2.663-.714,5.329,5.329,0,0,0,2-2.095,6.576,6.576,0,0,0,.763-3.231,6.483,6.483,0,0,0-.763-3.215" transform="translate(-86.332 -22.144)" fill="#fff"/>
    <path id="Caminho_12" data-name="Caminho 12" d="M193.967,55.162a8.162,8.162,0,0,1,7.323-4.384,7.815,7.815,0,0,1,3.686.828,7.484,7.484,0,0,1,2.516,2.062v-2.6h3.735V68.963h-3.735V66.3a7.354,7.354,0,0,1-2.565,2.111A8.3,8.3,0,0,1,197,68.071a8.4,8.4,0,0,1-3.036-3.313,10.185,10.185,0,0,1-1.12-4.822,9.9,9.9,0,0,1,1.12-4.774m12.762,1.624a5.364,5.364,0,0,0-2-2.079,5.229,5.229,0,0,0-2.663-.714,5.321,5.321,0,0,0-2.663.7,5.266,5.266,0,0,0-2,2.046,6.39,6.39,0,0,0-.763,3.2,6.666,6.666,0,0,0,.763,3.247,5.384,5.384,0,0,0,2.013,2.127,5.166,5.166,0,0,0,2.647.731,5.226,5.226,0,0,0,2.663-.714,5.329,5.329,0,0,0,2-2.095A6.576,6.576,0,0,0,207.493,60a6.483,6.483,0,0,0-.763-3.215" transform="translate(-125.011 -32.916)" fill="#fff"/>
    <path id="Caminho_13" data-name="Caminho 13" d="M258.372,51.542a6.391,6.391,0,0,1,3.2-.763v3.832h-.942a4.509,4.509,0,0,0-3.3,1.1q-1.12,1.1-1.12,3.832v9.417h-3.7V51.071h3.7v2.6a5.809,5.809,0,0,1,2.159-2.127" transform="translate(-163.687 -32.917)" fill="#fff"/>
    <path id="Caminho_14" data-name="Caminho 14" d="M291.923,51.623a7.836,7.836,0,0,1,3.67-.845,8.182,8.182,0,0,1,4.27,1.153,8.1,8.1,0,0,1,3.036,3.231,10.023,10.023,0,0,1,1.1,4.773,10.312,10.312,0,0,1-1.1,4.823,8.251,8.251,0,0,1-3.036,3.312,8,8,0,0,1-4.27,1.185,7.765,7.765,0,0,1-3.637-.828,8.142,8.142,0,0,1-2.6-2.062V77.472h-3.7V51.07h3.7V53.7a7.524,7.524,0,0,1,2.565-2.078m7.55,5.115a5.238,5.238,0,0,0-2.013-2.046,5.41,5.41,0,0,0-2.679-.7,5.255,5.255,0,0,0-2.647.714,5.321,5.321,0,0,0-2.013,2.079A6.475,6.475,0,0,0,289.357,60a6.57,6.57,0,0,0,.763,3.231,5.279,5.279,0,0,0,4.66,2.809,5.222,5.222,0,0,0,2.679-.731,5.387,5.387,0,0,0,2.013-2.127,6.669,6.669,0,0,0,.763-3.247,6.393,6.393,0,0,0-.763-3.2" transform="translate(-185.173 -32.916)" fill="#fff"/>
    <path id="Caminho_15" data-name="Caminho 15" d="M344.522,35.45a2.371,2.371,0,0,1,1.688-4.059,2.256,2.256,0,0,1,1.656.682,2.432,2.432,0,0,1,0,3.377,2.255,2.255,0,0,1-1.656.682,2.292,2.292,0,0,1-1.688-.682M348.029,56.4h-3.7V38.5h3.7Z" transform="translate(-222.89 -20.349)" fill="#fff"/>
    <path id="Caminho_16" data-name="Caminho 16" d="M21.121,34.35l-.3-.171h0L0,46.2V58.226L20.825,46.2l.3.171Z" transform="translate(0 -22.156)" fill="#136375"/>
    <path id="Caminho_17" data-name="Caminho 17" d="M69.891,40.352,59.2,34.178V46.2l10.672,6.161Z" transform="translate(-38.376 -22.156)" fill="#11576d"/>
    <path id="Caminho_18" data-name="Caminho 18" d="M88.8,6.012,99.213,0V24.457L88.8,30.469Z" transform="translate(-57.563 0)" fill="#0f4f68"/>
    <path id="Caminho_19" data-name="Caminho 19" d="M40.2,91.354l-.184.107h0L29.6,85.449V97.473l10.412,6.012h0l.184-.107Z" transform="translate(-19.189 -55.391)" fill="#02d18c"/>
    <path id="Caminho_20" data-name="Caminho 20" d="M80.025,80.382,59.2,92.406V80.382L80.026,68.359Z" transform="translate(-38.375 -44.313)" fill="#00b981"/>
  </g>
</svg>
